<?xml version="1.0" encoding="UTF-8" standalone="no"?>
<svg width="100px" height="100px" viewBox="0 0 100 100" version="1.1" xmlns="http://www.w3.org/2000/svg" xmlns:xlink="http://www.w3.org/1999/xlink">
    <!-- Generator: Sketch 3.7.2 (28276) - http://www.bohemiancoding.com/sketch -->
    <title>Full</title>
    <desc>Created with Sketch.</desc>
    <defs></defs>
    <g id="Balls" stroke="none" stroke-width="1" fill="none" fill-rule="evenodd">
        <g id="Full">
            <path d="M100,50 C100,77.615041 77.6138784,100 49.997403,100 C22.3861216,100 0,77.615041 0,50 C0,22.384959 22.3861216,0 49.997403,0 C77.6138784,0 100,22.384959 100,50" id="Fill-1" fill="#000000"></path>
            <g id="Group" transform="translate(5.000000, 5.000000)">
                <path d="M89.3264214,40.2114014 C87.1056714,18.3134422 69.5310286,1.49983673 47.5451,0.226231293 L46.2106357,0.150721088 L46.2106357,41.5957551 L89.4674214,41.5957551 L89.3264214,40.2114014 Z" id="Fill-4" fill="#51A7D8"></path>
                <path d="M46.2101321,44.2084082 L46.2101321,89.4591565 L47.5445964,89.3886803 C70.764275,88.0194286 89.2302393,68.7391565 89.5777036,45.4870476 L89.5978464,44.2084082 L46.2101321,44.2084082 Z" id="Fill-6" fill="#C3DA4A"></path>
                <path d="M0.210392857,44.2084082 L0.230535714,45.4870476 C0.583035714,68.7391565 19.049,88.0194286 42.2686786,89.3886803 L43.6031429,89.4591565 L43.6031429,44.2084082 L0.210392857,44.2084082 Z" id="Fill-8" fill="#ED2281"></path>
                <path d="M42.2686786,0.224721088 C20.2777143,1.49832653 2.70307143,18.316966 0.487357143,40.2098912 L0.346357143,41.5992789 L43.6031429,41.5992789 L43.6031429,0.149210884 L42.2686786,0.224721088 Z" id="Fill-10" fill="#F9C63C"></path>
            </g>
        </g>
    </g>
</svg>